<svg width="807" height="960" viewBox="0 0 807 960" fill="none" xmlns="http://www.w3.org/2000/svg">
<path d="M1250.3 953.395C1106.4 910.817 874.022 814.142 1095.69 768.063C1372.78 710.463 569.762 443.347 1028.6 347.964C1395.66 271.658 1099.37 84.194 905.356 0M367.689 958.346C223.784 915.771 -8.60823 819.115 213.024 773.091C490.066 715.561 -312.967 448.475 145.801 353.209C512.809 276.994 216.489 89.5887 22.4502 5.41221L367.689 958.346ZM455.809 958.081C311.907 915.504 79.5269 818.829 301.192 772.749C578.269 715.15 -224.738 448.033 234.1 352.651C601.167 276.345 304.88 88.8806 110.853 4.68659L455.809 958.081ZM544.489 956.895C400.586 914.323 168.183 817.685 389.776 771.717C666.783 714.258 -136.27 447.2 322.427 352.05C689.382 275.929 393.021 88.5808 198.975 4.422L544.489 956.895ZM632.609 956.631C488.706 914.056 256.318 817.399 477.955 771.376C754.986 713.846 -48.0407 446.76 410.729 351.492C777.741 275.279 481.415 87.8731 287.376 3.69673L632.609 956.631ZM720.728 956.366C576.838 913.789 344.454 817.113 566.122 771.033C843.201 713.433 40.1887 446.318 499.027 350.936C866.099 274.63 569.809 87.1651 375.779 2.97111L720.728 956.366ZM809.134 955.641C665.232 913.065 432.839 816.408 654.469 770.385C931.511 712.856 128.484 445.77 587.254 350.502C954.266 274.289 657.941 86.8826 463.899 2.70616L809.134 955.641ZM897.54 954.915C753.637 912.342 521.233 815.704 742.827 769.737C1019.82 712.277 216.779 445.221 675.469 350.069C1042.43 273.947 746.072 86.6 552.018 2.44122L897.54 954.915ZM985.66 954.65C841.757 912.072 609.377 815.396 831.042 769.317C1108.13 711.718 305.115 444.602 763.947 349.22C1131.02 272.914 834.729 85.4489 640.711 1.25492L985.66 954.65ZM1074.07 953.925C930.163 911.349 697.771 814.692 919.4 768.669C1196.44 711.14 393.415 444.053 852.174 348.787C1219.19 272.573 922.86 85.1667 728.83 0.990212L1074.07 953.925ZM1162.19 953.66C1018.28 911.084 785.89 814.428 1007.52 768.404C1284.56 710.875 481.535 443.788 940.293 348.522C1307.32 272.308 1010.99 84.902 816.95 0.725622L1162.19 953.66Z" stroke="#F8E0DF" stroke-width="0.997239"/>
</svg>
